<mxfile host="app.diagrams.net" modified="2024-01-16T03:30:09.924Z" agent="Mozilla/5.0 (Windows NT 10.0; Win64; x64) AppleWebKit/537.36 (KHTML, like Gecko) Chrome/120.0.0.0 Safari/537.36" etag="KG7--1vEbVkejJBDVspu" version="22.1.18" type="github">
  <diagram name="Page-1" id="cRW9Jbfn9-ClYsezkUJE">
    <mxGraphModel dx="1434" dy="746" grid="1" gridSize="10" guides="1" tooltips="1" connect="1" arrows="1" fold="1" page="1" pageScale="1" pageWidth="850" pageHeight="1100" math="0" shadow="0">
      <root>
        <mxCell id="0" />
        <mxCell id="1" parent="0" />
        <mxCell id="dy94y1pTR7_O4QB-4Vzh-1" value="Start" style="rounded=1;whiteSpace=wrap;html=1;" vertex="1" parent="1">
          <mxGeometry x="365" y="50" width="120" height="60" as="geometry" />
        </mxCell>
        <mxCell id="dy94y1pTR7_O4QB-4Vzh-19" style="edgeStyle=orthogonalEdgeStyle;rounded=0;orthogonalLoop=1;jettySize=auto;html=1;exitX=0.5;exitY=1;exitDx=0;exitDy=0;entryX=0.5;entryY=0;entryDx=0;entryDy=0;" edge="1" parent="1" source="dy94y1pTR7_O4QB-4Vzh-2" target="dy94y1pTR7_O4QB-4Vzh-4">
          <mxGeometry relative="1" as="geometry" />
        </mxCell>
        <mxCell id="dy94y1pTR7_O4QB-4Vzh-2" value="Create a random word" style="rounded=1;whiteSpace=wrap;html=1;" vertex="1" parent="1">
          <mxGeometry x="365" y="150" width="120" height="60" as="geometry" />
        </mxCell>
        <mxCell id="dy94y1pTR7_O4QB-4Vzh-3" value="" style="endArrow=classic;html=1;rounded=0;exitX=0.5;exitY=1;exitDx=0;exitDy=0;entryX=0.5;entryY=0;entryDx=0;entryDy=0;" edge="1" parent="1" source="dy94y1pTR7_O4QB-4Vzh-1" target="dy94y1pTR7_O4QB-4Vzh-2">
          <mxGeometry width="50" height="50" relative="1" as="geometry">
            <mxPoint x="400" y="410" as="sourcePoint" />
            <mxPoint x="450" y="360" as="targetPoint" />
          </mxGeometry>
        </mxCell>
        <mxCell id="dy94y1pTR7_O4QB-4Vzh-26" style="edgeStyle=orthogonalEdgeStyle;rounded=0;orthogonalLoop=1;jettySize=auto;html=1;exitX=0.25;exitY=1;exitDx=0;exitDy=0;entryX=0.25;entryY=0;entryDx=0;entryDy=0;" edge="1" parent="1" source="dy94y1pTR7_O4QB-4Vzh-4" target="dy94y1pTR7_O4QB-4Vzh-5">
          <mxGeometry relative="1" as="geometry" />
        </mxCell>
        <mxCell id="dy94y1pTR7_O4QB-4Vzh-4" value="Print starting board" style="rounded=1;whiteSpace=wrap;html=1;" vertex="1" parent="1">
          <mxGeometry x="365" y="240" width="120" height="60" as="geometry" />
        </mxCell>
        <mxCell id="dy94y1pTR7_O4QB-4Vzh-5" value="User guesses word" style="rounded=1;whiteSpace=wrap;html=1;" vertex="1" parent="1">
          <mxGeometry x="365" y="340" width="120" height="60" as="geometry" />
        </mxCell>
        <mxCell id="dy94y1pTR7_O4QB-4Vzh-6" value="correct guess" style="endArrow=classic;html=1;rounded=0;" edge="1" parent="1" target="dy94y1pTR7_O4QB-4Vzh-7">
          <mxGeometry width="50" height="50" relative="1" as="geometry">
            <mxPoint x="490" y="370" as="sourcePoint" />
            <mxPoint x="450" y="360" as="targetPoint" />
          </mxGeometry>
        </mxCell>
        <mxCell id="dy94y1pTR7_O4QB-4Vzh-25" style="edgeStyle=orthogonalEdgeStyle;rounded=0;orthogonalLoop=1;jettySize=auto;html=1;exitX=0;exitY=0.5;exitDx=0;exitDy=0;" edge="1" parent="1" source="dy94y1pTR7_O4QB-4Vzh-7" target="dy94y1pTR7_O4QB-4Vzh-11">
          <mxGeometry relative="1" as="geometry" />
        </mxCell>
        <mxCell id="dy94y1pTR7_O4QB-4Vzh-7" value="print correct guess&lt;br&gt;update answer" style="rounded=1;whiteSpace=wrap;html=1;" vertex="1" parent="1">
          <mxGeometry x="520" y="430" width="120" height="60" as="geometry" />
        </mxCell>
        <mxCell id="dy94y1pTR7_O4QB-4Vzh-24" style="edgeStyle=orthogonalEdgeStyle;rounded=0;orthogonalLoop=1;jettySize=auto;html=1;exitX=1;exitY=0.5;exitDx=0;exitDy=0;entryX=0.25;entryY=0;entryDx=0;entryDy=0;" edge="1" parent="1" source="dy94y1pTR7_O4QB-4Vzh-8" target="dy94y1pTR7_O4QB-4Vzh-11">
          <mxGeometry relative="1" as="geometry" />
        </mxCell>
        <mxCell id="dy94y1pTR7_O4QB-4Vzh-8" value="print incorrect guess&lt;br&gt;update board" style="rounded=1;whiteSpace=wrap;html=1;" vertex="1" parent="1">
          <mxGeometry x="220" y="430" width="120" height="60" as="geometry" />
        </mxCell>
        <mxCell id="dy94y1pTR7_O4QB-4Vzh-10" value="incorrect guess" style="endArrow=classic;html=1;rounded=0;exitX=0;exitY=0.5;exitDx=0;exitDy=0;entryX=0.5;entryY=0;entryDx=0;entryDy=0;" edge="1" parent="1" source="dy94y1pTR7_O4QB-4Vzh-5" target="dy94y1pTR7_O4QB-4Vzh-8">
          <mxGeometry width="50" height="50" relative="1" as="geometry">
            <mxPoint x="400" y="410" as="sourcePoint" />
            <mxPoint x="450" y="360" as="targetPoint" />
          </mxGeometry>
        </mxCell>
        <mxCell id="dy94y1pTR7_O4QB-4Vzh-18" style="edgeStyle=orthogonalEdgeStyle;rounded=0;orthogonalLoop=1;jettySize=auto;html=1;exitX=0.5;exitY=1;exitDx=0;exitDy=0;entryX=0.5;entryY=0;entryDx=0;entryDy=0;" edge="1" parent="1" source="dy94y1pTR7_O4QB-4Vzh-11" target="dy94y1pTR7_O4QB-4Vzh-14">
          <mxGeometry relative="1" as="geometry" />
        </mxCell>
        <mxCell id="dy94y1pTR7_O4QB-4Vzh-11" value="check, win or loss condition reached" style="rounded=1;whiteSpace=wrap;html=1;" vertex="1" parent="1">
          <mxGeometry x="370" y="520" width="120" height="60" as="geometry" />
        </mxCell>
        <mxCell id="dy94y1pTR7_O4QB-4Vzh-12" value="" style="endArrow=classic;html=1;rounded=0;exitX=1;exitY=0.5;exitDx=0;exitDy=0;" edge="1" parent="1" source="dy94y1pTR7_O4QB-4Vzh-11" target="dy94y1pTR7_O4QB-4Vzh-13">
          <mxGeometry width="50" height="50" relative="1" as="geometry">
            <mxPoint x="400" y="410" as="sourcePoint" />
            <mxPoint x="450" y="360" as="targetPoint" />
          </mxGeometry>
        </mxCell>
        <mxCell id="dy94y1pTR7_O4QB-4Vzh-16" style="edgeStyle=orthogonalEdgeStyle;rounded=0;orthogonalLoop=1;jettySize=auto;html=1;exitX=1;exitY=0.5;exitDx=0;exitDy=0;entryX=0.5;entryY=0;entryDx=0;entryDy=0;" edge="1" parent="1" source="dy94y1pTR7_O4QB-4Vzh-13" target="dy94y1pTR7_O4QB-4Vzh-5">
          <mxGeometry relative="1" as="geometry" />
        </mxCell>
        <mxCell id="dy94y1pTR7_O4QB-4Vzh-13" value="no" style="rounded=1;whiteSpace=wrap;html=1;" vertex="1" parent="1">
          <mxGeometry x="520" y="520" width="120" height="60" as="geometry" />
        </mxCell>
        <mxCell id="dy94y1pTR7_O4QB-4Vzh-22" value="you win" style="edgeStyle=orthogonalEdgeStyle;rounded=0;orthogonalLoop=1;jettySize=auto;html=1;exitX=1;exitY=0.5;exitDx=0;exitDy=0;entryX=0.5;entryY=0;entryDx=0;entryDy=0;" edge="1" parent="1" source="dy94y1pTR7_O4QB-4Vzh-14" target="dy94y1pTR7_O4QB-4Vzh-21">
          <mxGeometry x="0.2941" y="10" relative="1" as="geometry">
            <mxPoint as="offset" />
          </mxGeometry>
        </mxCell>
        <mxCell id="dy94y1pTR7_O4QB-4Vzh-23" value="you lose" style="edgeStyle=orthogonalEdgeStyle;rounded=0;orthogonalLoop=1;jettySize=auto;html=1;exitX=0;exitY=0.5;exitDx=0;exitDy=0;" edge="1" parent="1" source="dy94y1pTR7_O4QB-4Vzh-14" target="dy94y1pTR7_O4QB-4Vzh-20">
          <mxGeometry relative="1" as="geometry" />
        </mxCell>
        <mxCell id="dy94y1pTR7_O4QB-4Vzh-14" value="yes" style="rounded=1;whiteSpace=wrap;html=1;" vertex="1" parent="1">
          <mxGeometry x="370" y="630" width="120" height="60" as="geometry" />
        </mxCell>
        <mxCell id="dy94y1pTR7_O4QB-4Vzh-20" value="update board&lt;br&gt;print you lose" style="rounded=1;whiteSpace=wrap;html=1;" vertex="1" parent="1">
          <mxGeometry x="260" y="750" width="120" height="60" as="geometry" />
        </mxCell>
        <mxCell id="dy94y1pTR7_O4QB-4Vzh-21" value="print you win" style="rounded=1;whiteSpace=wrap;html=1;" vertex="1" parent="1">
          <mxGeometry x="510" y="750" width="120" height="60" as="geometry" />
        </mxCell>
      </root>
    </mxGraphModel>
  </diagram>
</mxfile>
